<?xml version="1.0" standalone="no"?>
<!DOCTYPE svg PUBLIC "-//W3C//DTD SVG 20010904//EN"
 "http://www.w3.org/TR/2001/REC-SVG-20010904/DTD/svg10.dtd">
<svg version="1.0" xmlns="http://www.w3.org/2000/svg"
 width="201.000000pt" height="201.000000pt" viewBox="0 0 201.000000 201.000000"
 preserveAspectRatio="xMidYMid meet">
<metadata>
Created by potrace 1.14, written by Peter Selinger 2001-2017
</metadata>
<g transform="translate(0.000000,201.000000) scale(0.100000,-0.100000)"
fill="#000000" stroke="none">
<path d="M737 1510 c-20 -4 -41 -11 -45 -15 -4 -4 4 -5 18 -2 14 4 37 7 53 7
15 0 27 5 27 10 0 6 -3 9 -7 9 -5 -1 -25 -5 -46 -9z"/>
<path d="M861 1497 c122 -35 200 -114 229 -232 7 -28 8 -28 9 -5 1 36 -41 119
-81 160 -44 45 -109 79 -162 85 l-41 5 46 -13z"/>
<path d="M630 1467 c-42 -26 -75 -60 -105 -107 -28 -44 -35 -71 -40 -140 -3
-45 -2 -48 4 -20 8 33 8 33 10 7 0 -15 8 -41 16 -57 13 -26 24 -32 51 -29 3 0
12 -8 19 -17 10 -14 10 -23 0 -48 -8 -17 -19 -31 -27 -31 -15 0 -58 81 -61
114 -1 12 -5 21 -9 21 -10 0 -11 1 8 -56 10 -27 26 -62 37 -77 16 -24 17 -32
7 -57 l-12 -29 -38 24 c-36 23 -39 23 -45 6 -9 -29 -135 -237 -213 -351 l-72
-105 62 -3 c72 -4 69 -5 156 123 56 84 60 90 130 230 30 61 56 112 58 114 10
11 31 -22 26 -42 -10 -40 -103 -210 -173 -317 l-68 -105 51 -3 c44 -3 55 0 70
20 10 13 75 98 145 191 100 133 131 167 150 167 12 0 23 -3 23 -7 0 -7 -84
-120 -212 -285 l-68 -88 85 0 c79 0 86 2 112 28 72 71 203 256 265 373 13 26
32 54 41 64 10 9 15 20 12 25 -3 5 11 39 30 77 21 40 32 56 28 38 -3 -16 -17
-47 -30 -68 -14 -22 -22 -41 -20 -43 11 -11 59 91 61 129 2 23 6 53 10 67 4
14 -5 3 -20 -23 -19 -32 -33 -46 -42 -42 -11 4 -12 2 -4 -7 8 -10 0 -32 -29
-86 -22 -39 -45 -72 -50 -72 -6 0 -17 16 -25 35 -16 40 -24 43 -48 16 -10 -11
-31 -25 -48 -32 -28 -11 -33 -11 -49 10 -17 21 -17 24 -3 49 l16 27 -19 -23
-19 -24 -17 26 c-10 14 -15 26 -11 26 3 0 -1 12 -10 26 -19 28 -18 58 2 60 6
1 17 2 23 3 8 1 8 5 2 14 -6 6 -10 19 -10 27 -1 8 -4 22 -7 31 -5 12 3 27 26
48 l33 30 12 -24 c13 -24 46 -41 62 -31 5 3 11 -3 14 -13 3 -14 1 -18 -9 -14
-16 6 -20 -32 -4 -42 6 -4 8 -11 5 -16 -4 -5 1 -9 9 -9 8 0 20 -8 25 -17 10
-16 11 -16 17 5 3 12 10 22 14 22 5 0 18 14 30 30 l22 30 -31 6 c-17 4 -31 13
-31 21 0 8 -5 11 -12 7 -8 -5 -9 5 -5 35 3 28 2 41 -6 39 -7 -1 -27 2 -45 6
-27 6 -36 4 -47 -11 -13 -17 -14 -16 -20 8 -4 15 -17 32 -30 39 -15 8 -21 18
-18 31 3 10 0 19 -6 19 -6 0 -11 -7 -11 -15 0 -8 -8 -15 -19 -15 -10 0 -21 -9
-24 -20 -3 -13 -13 -19 -29 -19 -12 1 -32 -2 -42 -6 -17 -8 -18 -5 -12 31 10
49 11 52 50 75 17 10 27 19 21 19 -5 0 -26 -10 -45 -23z m53 -237 c-3 -11 -10
-23 -16 -27 -5 -3 -8 -2 -5 3 3 5 8 17 11 27 9 24 16 22 10 -3z m-85 -25 c-3
-3 -9 2 -12 12 -6 14 -5 15 5 6 7 -7 10 -15 7 -18z m37 -145 c-7 -35 -29 -90
-36 -90 -4 0 -12 7 -19 15 -15 18 -6 47 12 40 8 -3 18 7 25 25 13 34 24 40 18
10z m202 -117 c-20 -27 -38 -47 -41 -45 -3 1 -15 2 -27 2 -20 0 -20 1 5 32 20
26 59 49 94 57 2 1 -12 -20 -31 -46z"/>
<path d="M825 1390 c3 -5 8 -10 11 -10 2 0 4 5 4 10 0 6 -5 10 -11 10 -5 0 -7
-4 -4 -10z"/>
<path d="M1206 1353 c-24 -98 -147 -382 -219 -503 -46 -78 -169 -258 -202
-295 l-35 -40 536 -3 c296 -1 539 0 542 3 3 3 -18 38 -46 80 -29 41 -52 78
-52 83 0 4 -8 17 -18 28 -17 18 -52 69 -62 89 -15 29 -185 280 -192 283 -4 2
-8 10 -8 18 0 19 -7 18 -56 -11 l-42 -25 -10 28 c-83 216 -115 292 -123 292
-4 0 -10 -12 -13 -27z"/>
<path d="M760 1240 c-18 -11 -14 -15 24 -24 24 -6 27 -4 22 9 -3 9 -6 19 -6
21 0 7 -25 4 -40 -6z"/>
<path d="M1000 1211 c0 -6 4 -13 10 -16 6 -3 7 1 4 9 -7 18 -14 21 -14 7z"/>
<path d="M985 1120 c4 -6 11 -8 16 -5 14 9 11 15 -7 15 -8 0 -12 -5 -9 -10z"/>
<path d="M930 1094 c6 -15 5 -24 -3 -27 -7 -2 -9 -8 -5 -11 9 -10 50 32 46 46
-2 6 -14 12 -25 13 -18 1 -20 -2 -13 -21z"/>
<path d="M560 1080 c0 -5 5 -10 10 -10 6 0 10 5 10 10 0 6 -4 10 -10 10 -5 0
-10 -4 -10 -10z"/>
</g>
</svg>
